<svg id="Social_Media_Icons" data-name="Social Media Icons" xmlns="http://www.w3.org/2000/svg" viewBox="0 0 90 90"><defs><style>.cls-1{fill:#52a3ac;}</style></defs><title>Twitter Teal</title><path class="cls-1" d="M90,25.52a36.78,36.78,0,0,1-10.6,2.91,18.53,18.53,0,0,0,8.12-10.21,37,37,0,0,1-11.73,4.48A18.48,18.48,0,0,0,44.32,39.53,52.41,52.41,0,0,1,6.27,20.24,18.48,18.48,0,0,0,12,44.89a18.37,18.37,0,0,1-8.37-2.31v.23A18.48,18.48,0,0,0,18.42,60.92a18.46,18.46,0,0,1-8.33.32A18.47,18.47,0,0,0,27.33,74.06,37,37,0,0,1,4.41,82,37.68,37.68,0,0,1,0,81.71,52.27,52.27,0,0,0,28.31,90c34,0,52.54-28.14,52.54-52.53,0-.8,0-1.6-.06-2.39A37.44,37.44,0,0,0,90,25.52Z"/></svg>